<svg id="Layer_1_copy" height="512" viewBox="0 0 64 64" width="512" xmlns="http://www.w3.org/2000/svg" data-name="Layer 1 copy"><path d="m57 26.25-20 9.75-7.73-17.33 5-5.53 1.86-2a4 4 0 0 1 5.87-.14l5 5 8 8.21z" fill="#229122"/><path d="m55 24.21c-4.35-1.09-9.16-3-12.51-6.21a17.35 17.35 0 0 0 -8.18-4.86l1.86-2a4 4 0 0 1 5.83-.14l5 5z" fill="#35b535"/><path d="m64 26v36h-17l-2.25-10.59-1-4.55-3.59-17.08 6.25-6.7 4.36-4.68a3 3 0 0 1 4.43 0l6.8 7.6z" fill="#3bb03c"/><path d="m64 48v16h-64v-61h8.89a12 12 0 0 1 8.65 3.69l36.7 37.48.23.23a12 12 0 0 0 8.53 3.6z" fill="#bbd036"/><path d="m64 26v10a15.61 15.61 0 0 1 -5-5c-2.49-3.87-6.78-6.06-10.45-7.29-.75-.25-1.47-.46-2.14-.63l4.36-4.68a3 3 0 0 1 4.43 0l6.8 7.6z" fill="#4ecc4e"/><g opacity=".3"><path d="m54.24 44.17c-1.37-.34-2.68-.73-4-1.18-7.83-2.79-14.13-7.86-22.54-16.74-10.7-11.25-22.52-11.15-27.7-10.41v-12.84h8.89a12 12 0 0 1 8.65 3.69z" fill="#d9e843"/></g><g fill="#032030"><path d="m3 42h-2a1 1 0 0 1 0-2h2a1 1 0 0 1 0 2z"/><path d="m64 49h-1a13.08 13.08 0 0 1 -9.29-3.9l-36.88-37.71a11.06 11.06 0 0 0 -7.94-3.39h-8.89v-2h8.89a13.06 13.06 0 0 1 9.38 4l36.92 37.7a11.07 11.07 0 0 0 7.81 3.3h1z"/><path d="m8.5 26h-7.5a1 1 0 0 1 0-2h7.5a3.5 3.5 0 0 0 3.5-3.5 5.51 5.51 0 0 1 5.5-5.5h9.16a1 1 0 0 1 0 2h-9.16a3.5 3.5 0 0 0 -3.5 3.5 5.51 5.51 0 0 1 -5.5 5.5z"/><path d="m16.5 34h-15.5a1 1 0 0 1 0-2h15.5a3.5 3.5 0 0 0 3.5-3.5 5.51 5.51 0 0 1 5.5-5.5h8.5a1 1 0 0 1 0 2h-8.5a3.5 3.5 0 0 0 -3.5 3.5 5.51 5.51 0 0 1 -5.5 5.5z"/><path d="m22.5 42h-15.5a1 1 0 0 1 0-2h15.5a3.5 3.5 0 0 0 3.5-3.5 5.51 5.51 0 0 1 5.5-5.5h10.83a1 1 0 0 1 0 2h-10.83a3.5 3.5 0 0 0 -3.5 3.5 5.51 5.51 0 0 1 -5.5 5.5z"/><path d="m8.5 58.5h-8.5v-2h8.5a3 3 0 0 0 3-3 5 5 0 0 1 5-5h12.5a3.5 3.5 0 0 0 3.5-3.5 5.51 5.51 0 0 1 5.5-5.5h12.65v2h-12.65a3.5 3.5 0 0 0 -3.5 3.5 5.51 5.51 0 0 1 -5.5 5.5h-12.5a3 3 0 0 0 -3 3 5 5 0 0 1 -5 5z"/><path d="m23 64a1 1 0 0 1 -1-1 7 7 0 0 1 7-7h9a3.5 3.5 0 0 0 3.5-3.5 5.51 5.51 0 0 1 5.5-5.5h15a1 1 0 0 1 0 2h-15a3.5 3.5 0 0 0 -3.5 3.5 5.51 5.51 0 0 1 -5.5 5.5h-9a5 5 0 0 0 -5 5 1 1 0 0 1 -1 1z"/><path d="m1.5 18h-.5a1 1 0 0 1 0-2h.5a3.5 3.5 0 0 0 3.5-3.5 5.51 5.51 0 0 1 5.5-5.5h8.5a1 1 0 0 1 0 2h-8.5a3.5 3.5 0 0 0 -3.5 3.5 5.51 5.51 0 0 1 -5.5 5.5z"/><path d="m40.16 30.78a1 1 0 0 1 -.73-1.68l10.57-11.38a4 4 0 0 1 3-1.27 4 4 0 0 1 2.94 1.32l6.51 7.23h.55a1 1 0 0 1 0 2h-1a1 1 0 0 1 -.74-.33l-6.8-7.56a2 2 0 0 0 -1.46-.66 2 2 0 0 0 -1.48.64l-10.63 11.37a1 1 0 0 1 -.73.32z"/><path d="m29.27 19.67a1 1 0 0 1 -.74-1.67l6.91-7.56a5 5 0 0 1 7.23-.17l5 5a1 1 0 0 1 -1.41 1.41l-5-5a2.87 2.87 0 0 0 -2.19-.88 3 3 0 0 0 -2.15 1l-6.92 7.54a1 1 0 0 1 -.73.33z"/><path d="m54 58h-1a1 1 0 0 1 0-2h1a1 1 0 0 1 0 2z"/><path d="m58 58h-1a1 1 0 0 1 0-2h1a1 1 0 0 1 0 2z"/></g></svg>