<svg id="Capa_1" enable-background="new 0 0 511.451 511.451" height="512" viewBox="0 0 511.451 511.451" width="512" xmlns="http://www.w3.org/2000/svg"><path d="m325.831 131.727-57.524-13.285-111.48 19.839c-11.542 2.666-21.76 9.349-28.827 18.856l-17.715 23.831c-6.4 8.609-9.856 19.051-9.856 29.778v36.357h225.401v-115.376z" fill="#fddeb0"/><path d="m135.735 236.889c0-10.727 3.456-21.169 9.856-29.778l17.715-23.831c7.067-9.507 17.285-16.19 28.827-18.856l111.48-19.839 22.219 5.132v-17.99l-57.524-13.285-111.48 19.839c-11.542 2.666-21.76 9.349-28.826 18.856l-17.715 23.831c-6.4 8.609-9.856 19.051-9.856 29.778v36.357h35.305v-10.214z" fill="#fdd79b"/><path d="m365.875 210.746v-128.03c0-8.398 2.561-16.595 7.341-23.5l6.974-10.074c2.626-3.793-.089-8.973-4.702-8.973h-14.514c-10.272 0-19.71 5.655-24.554 14.713-7.145 13.36-10.883 28.277-10.883 43.428v36.456 112.337h40.337z" fill="#80d261"/><path d="m348.484 98.31c0-15.151 3.738-30.068 10.883-43.428 3.907-7.306 10.805-12.393 18.717-14.09-.764-.389-1.635-.623-2.595-.623h-14.514c-10.272 0-19.709 5.655-24.554 14.713-7.145 13.36-10.883 28.277-10.883 43.428v36.456 112.337h22.945v-112.338-36.455z" fill="#68ca44"/><path d="m415.286 80.452c4.648 0 7.392 5.212 4.761 9.043l-6.871 10.007c-4.75 6.91-7.29 15.1-7.29 23.5v85.76l.68 38.34h-40.69v-72.05-36.46c0-7.57.93-15.09 2.74-22.38s4.51-14.36 8.06-21.04c4.8-9.06 14.16-14.72 24.35-14.72z" fill="#97da7b"/><path d="m386.258 182.005v-36.46c0-7.57.93-15.09 2.74-22.38s4.51-14.36 8.06-21.04c4.725-8.919 13.872-14.531 23.878-14.704.727-3.402-1.805-6.969-5.65-6.969h-14.26c-10.19 0-19.55 5.66-24.35 14.72-3.55 6.68-6.25 13.75-8.06 21.04s-2.74 14.81-2.74 22.38v36.46 72.05h20.383v-65.097z" fill="#80d261"/><path d="m396.093 334.662c-2.369 1.437-2.853 4.666-.99 6.717l16.733 18.423c1.3 1.43 2.02 3.3 2.02 5.23v48.888c0 .06.021.117.059.163l27.091 32.759c3.41 4.13 5.28 9.33 5.28 14.69v22.13c0 11.2-9.08 20.29-20.29 20.29h-133.09-74.36-133.09c-11.21 0-20.29-9.09-20.29-20.29v-22.13c0-5.36 1.87-10.56 5.28-14.69l27.091-32.759c.038-.046.059-.104.059-.163v-48.793c0-1.996.744-3.921 2.087-5.399l12.683-13.957 1.964-2.162c2.778-3.057 2.35-7.919-1.03-10.294-1.733-1.217-3.369-2.589-4.884-4.104l-6.41-6.41c-2.82-2.82-4.41-6.66-4.41-10.66v-50.89-28.144c0-.141.115-.256.256-.256h315.748c.141 0 .256.115.256.256v28.144 41.155c0 7.485-2.006 14.901-6.164 21.125-3.093 4.632-7.071 8.383-11.599 11.131z" fill="#fccd7f"/><path d="m135.271 483.662v-22.13c0-5.36 1.87-10.56 5.28-14.69l27.091-32.759c.038-.046.059-.104.059-.163v-48.793c0-1.996.744-3.921 2.087-5.399l12.683-13.957 1.964-2.162c2.778-3.057 2.35-7.919-1.03-10.294-1.733-1.217-3.369-2.589-4.884-4.104l-6.41-6.41c-2.82-2.82-4.41-6.66-4.41-10.66v-50.89-28.144c0-.141.115-.256.256-.256h-70.105c-.141 0-.256.115-.256.256v28.144 50.89c0 4 1.59 7.84 4.41 10.66l6.41 6.41c1.516 1.516 3.152 2.887 4.884 4.104 3.38 2.375 3.807 7.236 1.03 10.294l-1.964 2.162-12.683 13.957c-1.343 1.477-2.087 3.402-2.087 5.399v48.793c0 .06-.021.117-.059.163l-27.091 32.759c-3.41 4.13-5.28 9.33-5.28 14.69v22.13c0 11.2 9.08 20.29 20.29 20.29h70.105c-11.21 0-20.29-9.09-20.29-20.29z" fill="#fbc56d"/><path d="m413.856 261.252v-28.4h-316.26v28.4 30h316.26z" fill="#e9b665"/><path d="m434.836 226.722v18.56c0 8.82-7.15 15.97-15.98 15.97h-151.26-114.21-61.79c-8.83 0-15.98-7.15-15.98-15.97v-18.56c0-8.82 7.15-15.98 15.98-15.98h61.89 114.01 151.36c8.83 0 15.98 7.16 15.98 15.98z" fill="#fbc56d"/><path d="m238.201 333.951c3.892 12.634.846 26.945-9.152 36.943l-12.433 12.433c-3.383 3.383-8.868 3.383-12.251 0l-12.433-12.433c-9.998-9.998-13.044-24.31-9.152-36.943l18.537-39.553h17.627z" fill="#e8b800"/><path d="m259.481 330.951h-23.662c-13.988 0-25.328-11.34-25.328-25.328v-23.147h30.774c13.988 0 25.328 11.34 25.328 25.328v16.035c0 3.928-3.184 7.112-7.112 7.112z" fill="#fed402"/><path d="m161.379 330.951h23.784c13.988 0 25.328-11.34 25.328-25.328v-23.147h-30.774c-13.988 0-25.328 11.34-25.328 25.328v16.157c0 3.86 3.129 6.99 6.99 6.99z" fill="#fac600"/><path d="m160.53 288.476h24.633c13.988 0 25.328-11.34 25.328-25.328v-23.147h-30.774c-13.988 0-25.328 11.34-25.328 25.328v17.005c0 3.393 2.749 6.142 6.141 6.142z" fill="#fed402"/><path d="m160.394 230.001h24.769c13.988 0 25.328-11.34 25.328-25.328v-23.147h-30.774c-13.988 0-25.328 11.34-25.328 25.328v17.141c0 3.318 2.688 6.006 6.005 6.006z" fill="#fedf30"/><path d="m260.473 288.476h-24.654c-13.988 0-25.328-11.34-25.328-25.328v-23.147h30.774c13.988 0 25.328 11.34 25.328 25.328v17.026c0 3.381-2.74 6.121-6.12 6.121z" fill="#fedf30"/><path d="m161.028 183.354h24.135c13.988 0 25.328-11.34 25.328-25.328v-23.147h-30.774c-13.988 0-25.328 11.34-25.328 25.328v16.508c0 3.667 2.972 6.639 6.639 6.639z" fill="#fee45a"/><path d="m154.389 138.707h30.774c13.988 0 25.328-11.34 25.328-25.328v-23.147h-30.774c-13.988 0-25.328 11.34-25.328 25.328z" fill="#fee97d"/><path d="m260.323 230.001h-24.504c-13.988 0-25.328-11.34-25.328-25.328v-23.147h30.774c13.988 0 25.328 11.34 25.328 25.328v16.877c0 3.463-2.807 6.27-6.27 6.27z" fill="#fee45a"/><path d="m260.688 183.354h-24.869c-13.988 0-25.328-11.34-25.328-25.328v-23.147h30.774c13.988 0 25.328 11.34 25.328 25.328v17.242c0 3.261-2.644 5.905-5.905 5.905z" fill="#fee97d"/><path d="m260.197 138.707h-24.378c-13.988 0-25.328-11.34-25.328-25.328v-23.147h30.774c13.988 0 25.328 11.34 25.328 25.328v16.751c0 3.533-2.864 6.396-6.396 6.396z" fill="#fef0ae"/><path d="m446.785 442.066-25.427-30.752v-46.277c0-3.807-1.41-7.457-3.97-10.276l-14.304-15.746c1.846-1.351 3.604-2.848 5.253-4.497 8.397-8.397 13.021-19.562 13.021-31.437v-34.459c11.773-1.252 20.976-11.241 20.976-23.341v-18.561c0-12.944-10.531-23.475-23.476-23.475h-5.469v-80.243c0-6.914 2.063-13.572 5.964-19.253l13.082-19.047c1.577-2.295 1.751-5.275.455-7.739-1.297-2.464-3.852-4.007-6.637-4.007h-25.224c-10.939 0-21.069 5.093-27.654 13.582v-3.822c0-6.904 2.077-13.554 6.007-19.23l13.188-19.047c1.588-2.293 1.771-5.279.477-7.75-1.295-2.471-3.854-4.02-6.644-4.02h-25.428c-12.22 0-23.457 6.264-29.9 16.501-7.096-28.216-32.674-49.17-63.06-49.17-35.854 0-65.024 29.169-65.024 65.023v17.709h-23.274c-18.102 0-32.828 14.727-32.828 32.828v17.885c-9.981 3.901-18.747 10.537-25.2 19.217l-17.715 23.831c-5.813 7.819-9.54 17.113-10.827 26.752h-1.555c-12.944 0-23.476 10.531-23.476 23.475v18.561c0 12.44 9.728 22.646 21.976 23.423v43.441c0 6.03 2.348 11.699 6.612 15.963l6.409 6.408c1.643 1.644 3.397 3.145 5.253 4.499l-14.305 15.747c-2.559 2.818-3.969 6.468-3.969 10.275v46.277l-25.427 30.752c-4.516 5.463-7.003 12.375-7.003 19.462v22.133c0 15.323 12.466 27.79 27.79 27.79h29.536c4.142 0 7.5-3.358 7.5-7.5s-3.358-7.5-7.5-7.5h-29.536c-7.052 0-12.79-5.738-12.79-12.79v-22.133c0-3.607 1.266-7.124 3.564-9.904l24.897-30.111h34.809c4.142 0 7.5-3.358 7.5-7.5s-3.358-7.5-7.5-7.5h-30.839v-41.476c0-.071.026-.139.073-.19l20.589-22.662c1.637-1.801 2.297-4.284 1.773-6.661-.525-2.376-2.17-4.351-4.413-5.295-3.527-1.485-6.688-3.611-9.395-6.318l-6.41-6.409c-1.431-1.431-2.218-3.333-2.218-5.356v-43.388h41.796v15.719c0 3.437 2.315 6.327 5.468 7.214-3.451 5.196-5.468 11.423-5.468 18.114v23.147c0 4.142 3.358 7.5 7.5 7.5h19.394c-.987 12.757 3.561 25.46 12.847 34.747l12.433 12.434c3.151 3.15 7.29 4.726 11.428 4.726 4.139 0 8.278-1.575 11.429-4.726l12.433-12.433c9.286-9.286 13.834-21.99 12.847-34.747h19.394c4.142 0 7.5-3.358 7.5-7.5v-23.147c0-6.691-2.017-12.919-5.468-18.114 3.153-.887 5.468-3.777 5.468-7.214v-15.719h49.337c4.142 0 7.5-3.358 7.5-7.5s-3.358-7.5-7.5-7.5h-50.228c-.904-3.812-2.47-7.37-4.577-10.542 3.154-.887 5.468-3.777 5.468-7.214v-17.755h144.766c4.673 0 8.476 3.802 8.476 8.475v18.561c0 4.673-3.802 8.476-8.476 8.476h-63.466c-4.142 0-7.5 3.358-7.5 7.5s3.358 7.5 7.5 7.5h50.966v34.324c0 7.869-3.064 15.266-8.628 20.83-2.66 2.66-5.741 4.741-9.09 6.196-.224.083-.445.177-.662.282-3.473 1.408-7.218 2.15-11.078 2.15h-8.267c-4.142 0-7.5 3.358-7.5 7.5s3.358 7.5 7.5 7.5h8.267c4.164 0 8.236-.581 12.136-1.681l17.247 18.987c.048.053.074.121.074.192v41.476h-131.636c-4.142 0-7.5 3.358-7.5 7.5s3.358 7.5 7.5 7.5h135.606l24.897 30.111c2.298 2.78 3.564 6.297 3.564 9.904v22.133c0 7.052-5.737 12.79-12.79 12.79h-279.048c-4.142 0-7.5 3.358-7.5 7.5s3.358 7.5 7.5 7.5h279.048c15.323 0 27.79-12.467 27.79-27.79v-22.133c0-7.09-2.488-14.002-7.004-19.465zm-63.488-343.382c3.51-6.617 10.305-10.728 17.732-10.728h10.975l-5.015 7.301c-5.626 8.192-8.6 17.786-8.6 27.746v80.243h-25.014v-28.193-36.456c0-13.877 3.431-27.678 9.922-39.913zm-40.261-40.265c3.546-6.631 10.42-10.75 17.94-10.75h11.113l-5.039 7.278c-5.675 8.197-8.674 17.799-8.674 27.769v55.881 36.456 28.193h-25.336v-21.612c0-4.142-3.358-7.5-7.5-7.5s-7.5 3.358-7.5 7.5v21.612h-45.384c-.952-3.104-2.352-6.014-4.125-8.653 3.202-.855 5.563-3.767 5.563-7.238v-23.146c0-6.754-2.052-13.037-5.563-18.262 3.201-.855 5.563-3.767 5.563-7.238v-11.165l43.946 10.149v11.979c0 4.142 3.358 7.5 7.5 7.5s7.5-3.358 7.5-7.5v-14.906-36.456c-.001-13.868 3.456-27.662 9.996-39.891zm-83.943 202.911v15.646h-17.828-5.446c-9.831 0-17.828-7.998-17.828-17.828v-15.647h17.828 5.446c9.83 0 17.828 7.998 17.828 17.829zm0-81.476h-23.274c-9.831 0-17.828-7.998-17.828-17.828v-15.646h23.274c9.831 0 17.828 7.998 17.828 17.828zm-56.102-17.828c0 9.831-7.998 17.828-17.828 17.828h-23.274v-15.646c0-9.831 7.998-17.828 17.828-17.828h23.274zm-41.102 66.475v-15.646c0-9.831 7.998-17.828 17.828-17.828h23.274v15.646c0 9.831-7.998 17.828-17.828 17.828h-5.446zm97.204-97.293h-23.274c-9.831 0-17.828-7.998-17.828-17.829v-15.647h23.274c9.831 0 17.828 7.998 17.828 17.828zm-97.204 145.768v-15.646c0-9.831 7.998-17.829 17.828-17.829h5.446 17.828v15.647c0 9.831-7.998 17.828-17.828 17.828h-5.446zm73.93-48.475c-9.831 0-17.828-7.998-17.828-17.828v-15.646h23.274c9.831 0 17.828 7.998 17.828 17.828v15.646h-17.828zm32.196-213.501c27.583 0 50.024 22.44 50.024 50.023v33.287 23.988l-44.129-10.192c-1.732-16.484-15.71-29.374-32.645-29.374h-23.274v-17.709c0-27.583 22.44-50.023 50.024-50.023zm-106.126 100.561c0-9.831 7.998-17.828 17.828-17.828h23.274v15.646c0 9.831-7.998 17.829-17.828 17.829h-23.274zm-45.877 69.881 17.715-23.831c4.536-6.102 10.618-10.84 17.55-13.768-2.785 4.821-4.388 10.408-4.388 16.365v23.146c0 3.471 2.361 6.383 5.563 7.238-1.774 2.639-3.173 5.549-4.125 8.653h-40.002c1.163-6.415 3.789-12.558 7.687-17.803zm-32.895 59.839v-18.561c0-4.673 3.802-8.475 8.476-8.475h55.296v17.755c0 3.437 2.315 6.327 5.468 7.214-2.107 3.172-3.673 6.73-4.577 10.542h-56.187c-4.674.001-8.476-3.801-8.476-8.475zm78.772 64.523c0-9.831 7.998-17.828 17.828-17.828h5.446 17.828v15.646c0 9.831-7.998 17.829-17.828 17.829h-2.366c-.024 0-.048 0-.072 0h-20.836zm61.857 54.787-12.433 12.433c-.453.453-1.191.453-1.645 0l-12.433-12.433c-6.474-6.474-9.464-15.46-8.36-24.356 8.671-.981 16.332-5.347 21.615-11.75 5.283 6.403 12.943 10.769 21.615 11.75 1.105 8.896-1.886 17.882-8.359 24.356zm35.347-39.14h-20.84c-.021 0-.043 0-.064 0h-2.37c-9.831 0-17.828-7.998-17.828-17.829v-15.646h17.828 5.446c9.831 0 17.828 7.998 17.828 17.828z"/></svg>